<?xml version="1.0" encoding="UTF-8"?>
<svg version="1.1" viewBox="0 0 966 816" width="966" height="816" xmlns="http://www.w3.org/2000/svg">
<path transform="translate(447,134)" d="m0 0 9 1 16 7 17 10 13 10 7 7 7 6 5 5 8 10 10 15 9 16 13 27 11 29 13 38 12 42 9 29 7 21 14 43 9 26 19 46 19 42 11 23 11 22 2 8-1 6-4 3-7-1-10-5-10-8-14-12-15-15-8-10-10-13-13-19-12-19-11-17-13-17-9-9-8-6-11-6-14-4h-24l-18 4-17 6-18 8-20 12-15 10-18 13-16 13-6 5h-3l-2 4-15 13-7 7-8 7-9 9h-2v2l-12 12-7 8-12 13-4 5-3 3-7 8-10 11-3 3-6 1-5-3-3-5-1-6v-38l4-28 4-20 9-31 10-28 15-31 13-22 15-22 14-19 9-12 11-14 11-13 12-14 8-10 11-14 12-18 9-15 13-27 8-24 3-13 1-8v-29l-4-16-4-10-1-1v-10l5-6zm34 205-21 5-12 5-12 6-14 11-10 10-5 9-2 5v13l3 6 6 5 8 2h15l14-3 17-6 16-8 11-8 13-14 9-13 2-9-2-7-7-6-9-3z" fill="#010302"/>
</svg>
